<?xml version="1.0" encoding="UTF-8" standalone="no"?>
<!-- Created with Inkscape (http://www.inkscape.org/) -->

<svg
   version="1.1"
   id="svg1"
   width="458"
   height="566.27069"
   viewBox="0 0 458 566.27069"
   xmlns="http://www.w3.org/2000/svg"
   xmlns:svg="http://www.w3.org/2000/svg">
  <defs
     id="defs1" />
  <g
     id="g1"
     transform="translate(-278.43723,-205.81333)">
    <path
       style="fill:#000000"
       d="m 491.76143,770.9594 c -2.2967,-0.74911 -5.7712,-2.348 -7.7211,-3.55309 -3.5075,-2.16776 -11.6031,-10.62401 -11.6031,-12.12001 0,-0.42609 2.5327,-3.20858 5.6283,-6.18332 l 5.6283,-5.40862 4.625,4.6251 c 7.7089,7.70889 16.5112,8.91318 25.7166,3.51844 5.4405,-3.18833 9.5325,-9.40079 10.1818,-15.45801 l 0.4865,-4.53731 -2.3957,2.20115 c -3.216,2.95481 -10.3321,5.98141 -16.0242,6.81526 -9.3533,1.37021 -22.106,-4.67277 -28.0292,-13.28189 -10.4875,-15.24305 -8.6045,-37.45928 4.2371,-49.98985 10.1418,-9.89623 28.623,-10.9532 38.0207,-2.17447 1.725,1.61139 3.3137,2.9298 3.5306,2.9298 0.2168,0 0.3942,-2.04252 0.3942,-4.53893 v -4.53894 l 8.75,0.28894 8.75,0.28893 0.2769,31 c 0.1523,17.05 -0.1529,33.79688 -0.6783,37.21528 -2.0638,13.42794 -10.163,24.77513 -22.0552,30.90003 -4.5992,2.36876 -6.8774,2.85378 -14.5,3.08693 -5.6565,0.17301 -10.6073,-0.2335 -13.2192,-1.08542 z m 23.1554,-49.90365 c 6.9375,-3.92915 10.7542,-13.86303 8.3761,-21.80043 -1.7287,-5.77004 -8.383,-11.56935 -14.2916,-12.4554 -16.1847,-2.42704 -26.143,15.84983 -16.2867,29.89162 4.7968,6.83389 14.4807,8.73741 22.2022,4.36421 z m 200.736,19.44885 c -6.2831,-2.23289 -9.4879,-5.02735 -12.2068,-10.64375 -1.7977,-3.71371 -2.0088,-6.16538 -2.0088,-23.33399 v -19.18428 h -5 -5 v -9 -9 h 5 5 v -13.5 -13.5 h 8.471 8.471 l 0.279,13.25 0.279,13.25 8,0.5 8,0.5 v 8.5 8.5 l -7.75,0.29206 -7.75,0.29207 v 16.38535 16.38536 l 2.75,2.179 c 2.3601,1.87005 3.5653,2.0952 8.5,1.58792 l 5.75,-0.5911 v 7.94949 c 0,9.25292 -0.2649,9.54326 -9.549,10.46744 -4.4624,0.44421 -7.2728,0.12263 -11.2354,-1.28557 z m -419.2221,-0.0964 c -7.4032,-2.25193 -12.6739,-6.91081 -15.9126,-14.06562 -1.954,-4.31661 -2.0379,-6.38482 -2.0589,-50.75 l -0.022,-46.25 h 8.5 8.5 v 41.75 c 0,45.78557 0.036,46.0717 6.1169,50.52592 2.6989,1.97706 9.9671,2.52312 15.9863,1.20107 l 2.8948,-0.6359 v 8.94353 8.94353 l -4.6396,0.63593 c -6.0305,0.82657 -16.1828,0.67014 -19.3669,-0.29842 z m 45.3422,-1.48971 c -10.1843,-4.74188 -17.2238,-14.52722 -19.387,-26.94927 -3.5798,-20.55662 10.2741,-40.65774 29.2048,-42.37432 7.5024,-0.68029 13.7393,1.10808 18.7136,5.36588 2.173,1.86001 4.2168,3.3818 4.5419,3.3818 0.325,0 0.591,-2.025 0.591,-4.5 v -4.5 h 8.5 8.5 v 36.04044 36.04044 l -8.25,-0.29044 -8.25,-0.29044 -0.3106,-3.75464 -0.3107,-3.75464 -3.4373,2.62178 c -7.811,5.9577 -20.9063,7.24674 -30.1057,2.96345 z m 25.3438,-17.73561 c 4.1414,-2.49604 8.3205,-10.82177 8.3205,-16.57648 0,-12.95697 -13.8522,-21.90241 -25.3199,-16.35099 -10.734,5.19623 -13.5972,18.84362 -6.0473,28.82374 5.3717,7.10067 15.1773,8.84669 23.0467,4.10377 z m 182.7913,18.94421 c -0.2737,-0.71327 -0.3791,-16.81908 -0.2342,-35.7907 l 0.2634,-34.49381 8.75,-0.28893 8.75,-0.28894 v 5.06219 5.06219 l 4.9857,-3.94099 c 6.3173,-4.99353 10.7298,-6.43881 18.0428,-5.90984 10.7233,0.77565 20.5555,9.81937 22.3267,20.5362 0.3425,2.07247 0.6277,14.23062 0.6338,27.01812 l 0.011,23.25 h -8.3457 -8.3457 l -0.6502,-12.75 c -0.3577,-7.0125 -0.6521,-17.36911 -0.6543,-23.01469 0,-10.22366 -0.017,-10.27912 -3.3161,-13.87873 -2.7617,-3.01355 -4.1325,-3.68595 -8.25,-4.04685 -5.6677,-0.49676 -10.5797,1.66214 -13.9058,6.11182 -1.8636,2.49314 -2.0737,4.59995 -2.5322,25.39855 l -0.5,22.6799 -8.2658,0.2907 c -6.0657,0.21332 -8.3982,-0.0545 -8.7634,-1.00615 z m 93.3734,-0.12113 c -10.3184,-3.84697 -16.7123,-9.87985 -21.6604,-20.43713 -2.2902,-4.88659 -2.6838,-7.04918 -2.6838,-14.74768 0,-8.17082 0.3087,-9.6484 3.2741,-15.6717 11.3725,-23.09953 40.1701,-27.7783 57.0819,-9.27414 6.1741,6.75553 8.4218,13.05029 8.5498,23.94423 l 0.094,8.023 -25.2062,0.26708 -25.2062,0.26708 2.0359,3.45063 c 2.1817,3.69768 6.9126,7.0916 11.8653,8.512 4.8404,1.38821 12.4829,-1.0751 16.99,-5.4761 l 3.8213,-3.73143 5.8499,4.26367 c 3.2175,2.34501 6.0234,4.40338 6.2354,4.57416 0.62,0.49941 -2.4644,4.79802 -5.9279,8.26154 -5.9063,5.90632 -12.3599,8.4374 -22.4575,8.80772 -5.9042,0.21653 -10.2576,-0.13878 -12.6559,-1.03293 z m 26.1558,-43.75901 c 0,-2.35911 -4.2234,-6.83408 -8.3227,-8.81854 -5.3829,-2.60582 -9.6631,-2.64386 -14.5913,-0.12968 -3.7406,1.90831 -9.086,7.27403 -9.086,9.12058 0,0.52589 6.8864,0.92327 16,0.92327 10.931,0 16,-0.34711 16,-1.09563 z m -265.7628,8.84563 0.2628,-35.25 h 8.5 8.5 l 0.5,4.27871 0.5,4.27871 3.6964,-3.05735 c 5.2476,-4.34029 9.8554,-6.00007 16.6573,-6.00007 11.0642,0 21.0511,7.79554 24.1138,18.82269 0.5652,2.0348 1.0238,14.50885 1.0269,27.92731 l 0.01,24.25 h -8.5 -8.5 v -21.75 c 0,-24.51456 -0.5827,-27.04502 -6.9828,-30.41519 -4.5306,-2.38569 -8.3838,-2.31909 -13.6622,0.23614 -7.8829,3.81626 -8.353,5.52126 -8.353,30.29708 v 21.63197 h -9.0128 -9.0128 z m 95.2604,-79.78517 c -16.0535,-2.20169 -30.4912,-17.00863 -32.3176,-33.14412 l -0.68,-6.00708 -22.886,-12.90458 c -12.5873,-7.09752 -26.2522,-14.92783 -30.3665,-17.4007 l -7.4804,-4.49613 -5.3869,4.92329 c -9.0376,8.25986 -21.1251,11.52643 -32.1759,8.69535 -11.2648,-2.88593 -19.2138,-9.57405 -24.5069,-20.61986 -2.7456,-5.72943 -3.1046,-7.48524 -3.0669,-15 0.053,-10.65294 2.1965,-16.476 9.737,-26.45857 0.5509,-0.72933 -3.828,-10.43589 -12,-26.60041 l -12.8675,-25.45202 -7.555,-0.53723 c -17.9075,-1.27339 -32.0677,-14.97991 -34.9999,-33.87879 -3.415,-22.01033 13.2312,-43.45719 34.8288,-44.87317 l 7.274,-0.4769 13.341,-27.11695 13.3411,-27.11696 -2.5195,-3 c -1.3857,-1.65 -3.7996,-5.7 -5.3642,-9 -2.3614,-4.98056 -2.8449,-7.3104 -2.8455,-13.71249 -0.001,-14.57579 6.83,-25.62404 19.7911,-32.00694 6.0367,-2.97288 7.5077,-3.28057 15.6848,-3.28057 11.88,0 19.0985,3.11361 26.9969,11.64479 l 5.4095,5.84292 10.3084,-5.49558 c 5.6697,-3.02257 18.6926,-9.84786 28.9398,-15.16732 l 18.6312,-9.67173 0.5941,-5.01595 c 2.3533,-19.87033 23.9543,-35.22629 44.5155,-31.64572 16.1991,2.82095 29.5283,15.46217 32.668,30.98189 1.3128,6.48881 -0.2903,5.38064 31.4784,21.75969 11.8352,6.10188 23.0114,11.92068 24.836,12.93067 l 3.3174,1.83634 1.6641,-2.45868 c 3.9681,-5.86303 6.7578,-8.22555 13.8549,-11.7331 12.8037,-6.32797 25.1394,-5.51034 37.1509,2.46241 8.6696,5.7546 13.4886,13.28756 15.3155,23.94091 1.0596,6.17909 0.9633,7.53293 -0.9945,13.9784 -1.3799,4.54309 -3.6205,8.97456 -6.1652,12.19394 -2.1987,2.78151 -3.9976,5.29695 -3.9976,5.58987 0,0.29292 5.9288,12.40982 13.1751,26.92646 l 13.175,26.39388 6.575,0.39132 c 16.8005,0.99991 30.8292,13.33393 34.638,30.45364 3.0348,13.64093 0.1341,24.93454 -8.9954,35.02302 -7.5181,8.30773 -15.6274,12.51378 -25.327,13.13626 l -7.3687,0.4729 -12.436,24.85669 c -6.8398,13.67118 -12.436,25.50063 -12.436,26.28766 0,0.78703 1.1319,2.77612 2.5153,4.42019 1.3834,1.64407 3.7354,5.6161 5.2267,8.82672 2.3064,4.96535 2.7149,7.18216 2.7347,14.83751 0.02,7.68064 -0.3616,9.80628 -2.6021,14.5 -4.0544,8.49367 -8.9873,13.4524 -17.6297,17.72207 -6.9656,3.44125 -8.3644,3.77481 -15.696,3.74287 -9.7538,-0.0425 -16.346,-2.71584 -24.1958,-9.81209 -2.8308,-2.55907 -5.4126,-4.65285 -5.7373,-4.65285 -0.5323,0 -17.5356,9.57727 -49.6158,27.94653 l -11.5,6.58495 -0.5781,6.01889 c -0.6461,6.72686 -4.1855,15.27442 -8.3772,20.23079 -8.3574,9.88198 -23.0354,15.10534 -37.0471,13.18367 z m 13.335,-15.50776 c 10.3734,-3.08055 17.1588,-12.56719 17.1357,-23.95707 -0.015,-7.46468 -2.3427,-12.8163 -7.6584,-17.60863 -16.1661,-14.57455 -40.2094,-4.02377 -40.2879,17.67932 -0.041,11.26264 7.2896,21.20986 17.6915,24.00713 6.3043,1.69537 7.0259,1.68873 13.1191,-0.12075 z m -12.9095,-17.38015 c -5.8669,-5.86691 -2.4478,-15.07692 5.5972,-15.07692 4.9439,0 7.3835,1.52548 9.132,5.71017 3.8129,9.12572 -7.6687,16.42726 -14.7292,9.36675 z m -28.9373,-25.04912 c 4.3021,-8.43277 12.8267,-15.70225 22.3431,-19.05336 l 5.1711,-1.82098 0.2579,-59.66589 0.2579,-59.6659 -2.3967,1.83917 c -1.3182,1.01154 -8.2471,6.90523 -15.3977,13.09708 l -13.001,11.25792 3.6398,7.24208 c 3.335,6.63566 3.6398,7.95559 3.6398,15.76311 0,7.59257 -0.3541,9.24033 -3.2499,15.12258 -5.5556,11.28496 -16.7187,19.3268 -28.5187,20.54467 -6.8499,0.70696 -16.6775,-1.80348 -23.038,-5.88501 -9.6538,-6.19487 -16.6934,-19.49176 -16.6934,-31.53189 v -5.79171 l -12.25,-6.43626 c -6.7375,-3.53994 -18.9665,-10.18138 -27.1755,-14.75876 l -14.9256,-8.32249 -2.5744,2.36556 c -1.416,1.30106 -3.5548,3.01687 -4.7529,3.81293 l -2.1784,1.44737 3.7804,8.45599 c 4.5311,10.13517 17.905,36.96632 19.2658,38.65179 0.7079,0.87672 1.6786,0.91646 3.6381,0.14892 4.9477,-1.93811 17.1258,-1.38614 23.4192,1.06148 7.971,3.10013 15.8771,10.56852 19.9536,18.84907 2.8673,5.82443 3.2315,7.48719 3.1038,14.17169 -0.08,4.16517 -0.293,8.59255 -0.4744,9.83861 -0.2933,2.01522 2.7092,3.9707 27.1703,17.69581 15.125,8.48663 27.8284,15.45462 28.2297,15.48443 0.4013,0.0298 1.6416,-1.7333 2.7561,-3.91801 z m 97.8168,-10.15741 c 13.0336,-7.22128 25.4498,-14.1269 27.5915,-15.34581 l 3.8941,-2.21621 0.1059,-10.40418 c 0.097,-9.56937 0.3466,-10.84487 3.1059,-15.89632 8.3994,-15.37691 22.6191,-22.28497 40.5686,-19.70858 l 5.5685,0.79928 11.1815,-23.07932 c 6.1498,-12.69363 11.1814,-23.51581 11.1814,-24.04929 0,-0.53348 -0.4343,-0.96996 -0.9652,-0.96996 -0.5309,0 -2.5028,-1.35 -4.382,-3 -1.8793,-1.65 -3.9941,-3 -4.6997,-3 -1.1811,0 -47.0806,24.65639 -51.3137,27.56486 -1.4912,1.0246 -1.9013,2.73454 -2.0654,8.61376 -0.3363,12.04144 -6.2805,22.98783 -15.9113,29.30126 -11.1944,7.33836 -23.2394,8.21056 -35.1153,2.54275 -15.4647,-7.38061 -23.7484,-25.42789 -19.0856,-41.58089 0.9433,-3.26796 2.5753,-7.34486 3.6267,-9.05977 1.0513,-1.71492 1.9115,-3.59263 1.9115,-4.17268 0,-1.31272 -28.3122,-25.20929 -29.8675,-25.20929 -0.8305,0 -1.1325,15.71058 -1.1325,58.92245 v 58.92245 l 3.75,1.21287 c 9.7196,3.14364 17.7975,9.37796 23.4459,18.09489 1.7275,2.66604 3.5388,4.84734 4.0251,4.84734 0.4863,0 11.548,-5.90832 24.5816,-13.12961 z m -183.2743,-6.45085 c 8.447,-4.00835 14.7329,-13.49237 14.8646,-22.42725 0.1875,-12.72231 -13.0252,-24.37797 -25.7063,-22.67707 -2.1185,0.28414 -4.092,0.75688 -4.3857,1.05053 -0.2936,0.29365 3.456,4.85146 8.3326,10.12846 4.8766,5.27701 8.9932,9.95466 9.148,10.39479 0.1549,0.44013 -4.2326,5.64983 -9.75,11.57712 -5.5173,5.92728 -10.0315,11.13921 -10.0315,11.58206 0,2.24128 13.007,2.51685 17.5283,0.37136 z m 261.6301,-0.17796 c 0.7799,-0.77989 -0.4253,-3.06564 -4.2867,-8.12988 -2.9544,-3.87473 -5.6865,-7.05998 -6.0712,-7.07833 -0.6038,-0.0288 -8.1395,10.10134 -10.21,13.72509 -0.4503,0.78824 0.1457,1.62784 1.5953,2.24706 2.9482,1.25946 17.5366,0.67205 18.9726,-0.76394 z m -282.4288,-15.06579 c 2.6952,-3.12168 5.2181,-6.21066 5.6065,-6.86438 0.641,-1.07915 -9.2252,-13.33112 -11.3761,-14.12684 -1.413,-0.52277 -5.032,7.6276 -5.6304,12.6806 -0.6555,5.53447 2.8634,15.38173 5.1791,14.49312 0.7262,-0.27869 3.5256,-3.06081 6.2209,-6.1825 z m 257.9736,-2.9535 c 3.1882,-3.72774 7.3718,-8.88882 9.2968,-11.46908 1.925,-2.58025 3.9961,-4.70528 4.6025,-4.72229 0.6064,-0.017 3.2036,2.64347 5.7716,5.91217 8.5398,10.8698 14.8698,17.28024 15.7143,15.9139 1.4996,-2.42642 2.0526,-10.61973 0.9845,-14.58645 -0.5926,-2.20072 -2.4616,-5.74939 -4.1533,-7.88592 -9.3879,-11.8566 -22.8527,-13.47708 -33.5731,-4.04055 -5.6596,4.98176 -8.2955,10.47829 -8.3245,17.35888 -0.022,5.11553 1.5341,10.29705 3.0917,10.29705 0.436,0 3.4012,-3.04997 6.5895,-6.77771 z m -176.7836,-34.19922 c 5.3389,-1.53119 10.9615,-5.96486 13.89,-10.95289 6.7686,-11.52873 0.1262,-28.49478 -12.5323,-32.01005 -14.4407,-4.01024 -27.5307,4.16519 -29.8454,18.64012 -2.3858,14.92049 13.6204,28.58669 28.4877,24.32282 z m -10.4438,-13.41901 c -5.8765,-2.56036 -7.1795,-10.05422 -2.5527,-14.68098 3.1945,-3.19453 7.1078,-3.77737 11.6048,-1.72839 2.6865,1.22401 5.4721,5.45195 5.4721,8.30531 0,3.19352 -2.9966,7.30317 -6.1188,8.39158 -3.9456,1.37542 -4.6435,1.35155 -8.4054,-0.28752 z m 149.1703,10.8113 c 12.1462,-7.50937 14.7692,-23.40294 5.5501,-33.62833 -4.6847,-5.196 -10.2407,-7.73705 -16.9783,-7.76507 -13.054,-0.0543 -22.5467,9.40092 -22.5673,22.47804 -0.028,17.65101 18.9559,28.21365 33.9955,18.91536 z m -14.6461,-10.07895 c -7.5624,-3.01178 -8.767,-13.33703 -1.9664,-16.8538 3.6394,-1.882 6.3077,-1.87458 9.9864,0.0277 7.9941,4.13389 5.9052,15.88579 -3.02,16.99031 -1.925,0.23823 -4.175,0.16431 -5,-0.16425 z m -156.6828,-32.61423 c 1.7505,-1.8028 4.3078,-4.02249 5.6828,-4.93266 l 2.5,-1.65484 -7.6391,-14.81734 -7.6391,-14.81734 -22.0672,-0.26901 -22.0673,-0.26902 -1.1294,4.19425 c -2.4589,9.13168 -3.2798,8.17831 15.9911,18.57066 9.597,5.17541 20.397,11.16109 24,13.30152 3.6031,2.14042 7.1437,3.90966 7.8682,3.93164 0.7244,0.022 2.7494,-1.43506 4.5,-3.23786 z m 205.0013,-4.60683 c 7.7998,-4.33655 18.7773,-10.42752 24.3944,-13.53548 5.6171,-3.10796 10.4464,-6.02854 10.7317,-6.49017 0.2853,-0.46164 -0.3032,-3.25817 -1.3077,-6.21452 l -1.8264,-5.37518 -21.6305,-0.26943 -21.6304,-0.26944 -2.3548,3.76944 c -1.2952,2.07319 -5.0189,8.84985 -8.2748,15.05925 -5.6729,10.81857 -5.8373,11.33734 -3.94,12.42838 1.0889,0.62621 3.7889,2.84704 6,4.93518 2.211,2.08814 4.3883,3.80786 4.8385,3.82162 0.4501,0.0137 7.2001,-3.52309 15,-7.85965 z m -142.3995,-19.75237 19.3016,-16.63703 -4.8603,-4.11222 c -2.6732,-2.26171 -8.4603,-7.27395 -12.8603,-11.1383 -4.4,-3.86435 -10.3477,-8.98515 -13.2171,-11.37956 l -5.2171,-4.35347 -8.5225,2.77234 c -7.1079,2.31215 -9.537,2.66631 -14.634,2.13357 -7.983,-0.83439 -16.3591,-5.31592 -22.9391,-12.27335 -2.7959,-2.95623 -5.333,-5.37496 -5.638,-5.37496 -0.8351,0 -44.5549,22.94702 -46.6495,24.48473 -1.6193,1.18879 -1.6837,1.7798 -0.5917,5.42471 l 1.2256,4.09056 h 25.7691 25.7691 l 1.8226,2.36591 c 1.0024,1.30124 5.8708,10.02026 10.8186,19.37559 l 8.9961,17.00968 6.5833,0.55192 c 3.6209,0.30356 8.1227,1.22284 10.004,2.04284 1.8813,0.82 3.897,1.52762 4.4792,1.57249 0.5823,0.0449 9.7444,-7.40509 20.3604,-16.55545 z m 84.43,15.13567 c 1.9763,-0.82574 6.6437,-1.83824 10.3721,-2.25 l 6.7789,-0.74865 9.5633,-18.32561 c 5.2599,-10.07908 10.2099,-18.73469 11,-19.23469 0.7902,-0.49999 12.953,-0.91597 27.0284,-0.92439 l 25.5917,-0.0153 1.2353,-4.12301 c 0.6794,-2.26765 0.8631,-4.4628 0.4083,-4.8781 -0.4548,-0.41531 -9.377,-5.27592 -19.827,-10.80137 -10.45,-5.52544 -20.8924,-11.09264 -23.2054,-12.37155 l -4.2054,-2.3253 -5.0876,5.70818 c -3.4705,3.89376 -7.184,6.74021 -11.6829,8.955 -5.883,2.8962 -7.5252,3.24796 -15.207,3.25726 -6.9714,0.008 -9.4136,-0.41162 -12.8219,-2.20534 -2.3155,-1.21867 -4.9086,-2.21577 -5.7624,-2.21577 -1.607,0 -36.0274,29.51189 -36.0274,30.88978 0,0.65723 37.2413,33.11022 37.9955,33.11022 0.1431,0 1.8772,-0.67561 3.8535,-1.50135 z m -227.8417,-9.84996 c 9.1892,-4.27919 14.6927,-12.76283 14.6927,-22.64869 0,-6.91663 -2.1833,-12.3351 -6.9988,-17.36921 -5.0704,-5.30058 -10.3899,-7.5842 -17.7012,-7.59906 -14.3211,-0.0291 -24.5418,10.56295 -24.478,25.36749 0.076,17.6862 18.6084,29.64297 34.4853,22.24947 z m -14.0073,-14.80342 c -3.3312,-1.82202 -4.5,-4.02039 -4.5,-8.46382 0,-3.38546 0.5292,-4.65255 2.6349,-6.30887 4.9615,-3.90274 11.5425,-2.28553 13.9275,3.42253 3.2104,7.68344 -4.8683,15.28504 -12.0624,11.35016 z m 381.0556,14.78103 c 12.5668,-5.85179 18.2499,-20.35108 12.9841,-33.1263 -6.0379,-14.64824 -27.5482,-19.45994 -38.8789,-8.69695 -7.6321,7.24963 -10.6131,18.79627 -7.1762,27.79567 5.219,13.66588 20.2008,20.02064 33.071,14.02758 z m -15.4789,-16.21519 c -6.537,-5.50056 -2.3991,-15.41111 6.4345,-15.41111 3.7792,0 8.4888,4.99325 8.4888,9 0,2.1525 -0.9281,4.08193 -2.9231,6.07692 -3.7265,3.72649 -7.8327,3.84084 -12.0002,0.33419 z M 498.43723,341.0773 v -55.26528 l -5.25,-1.86206 c -10.2232,-3.62594 -19.0346,-11.6188 -23.4565,-21.27745 l -2.4768,-5.41009 -11.6584,6.14045 c -6.412,3.37725 -18.4602,9.75144 -26.7737,14.16485 l -15.1154,8.0244 -0.5927,7.06887 c -0.7995,9.53636 -4.9711,17.92227 -12.2039,24.53269 -8.9673,8.19552 -19.2262,10.96285 -32.9809,8.89652 l -5.0083,-0.75238 -12.3465,24.71745 c -6.861,13.73557 -11.8663,24.8775 -11.2658,25.07766 0.5943,0.19812 3.229,2.0905 5.8547,4.2053 l 4.7742,3.84508 7.5,-4.14511 c 4.125,-2.27981 16.05,-8.69754 26.5,-14.26162 l 19,-10.11651 0.5708,-7.40874 c 0.7662,-9.94389 3.8039,-16.5544 10.5309,-22.91644 6.8528,-6.48115 12.9435,-9.19013 21.9777,-9.77506 9.0667,-0.58704 16.2298,1.44707 23.5467,6.68664 11.2686,8.06923 17.2243,21.60461 14.9496,33.97531 -0.6451,3.50857 -2.2711,8.54637 -3.6134,11.19512 l -2.4404,4.81591 6.6887,5.80488 c 3.6787,3.19269 8.7363,7.62611 11.239,9.85205 5.7953,5.15442 11.0825,9.45284 11.6271,9.45284 0.2328,0 0.4233,-24.86938 0.4233,-55.26528 z m 30.4724,42.94428 14.4958,-11.82099 -1.8738,-3.67901 c -2.7647,-5.42815 -5.0944,-13.9703 -5.0944,-18.679 0,-12.65644 8.173,-25.34708 20.5,-31.83146 5.5099,-2.89838 6.776,-3.15635 15.5,-3.15817 8.3137,-0.002 10.1914,0.33738 15.0373,2.71581 8.0022,3.92765 13.1375,8.74842 16.9612,15.92245 2.7371,5.13524 3.4397,7.70809 3.7987,13.9097 0.3249,5.61229 0.8686,7.87463 2.0717,8.62115 0.8971,0.55667 7.9311,4.30651 15.6311,8.33298 7.7,4.02646 18.8236,9.89785 24.7191,13.04753 l 10.7191,5.72668 2.5047,-2.32135 c 1.3777,-1.27675 3.8666,-3.12577 5.531,-4.10895 1.6643,-0.98317 3.0261,-2.16685 3.0261,-2.63039 0,-0.76126 -23.5932,-47.65247 -24.3641,-48.42337 -0.1784,-0.17845 -3.6602,0.19415 -7.7374,0.82801 -6.3861,0.99282 -8.2386,0.91242 -13.3739,-0.58044 -10.456,-3.03964 -19.2482,-10.1888 -24.0434,-19.55018 -2.5781,-5.03313 -4.4612,-12.85003 -3.8417,-15.94727 0.3213,-1.60656 0,-3.07827 -0.8033,-3.70608 -0.7349,-0.57272 -8.5362,-4.78033 -17.3362,-9.35024 -8.8,-4.5699 -19.825,-10.419 -24.5,-12.99798 -4.675,-2.57899 -9.5112,-5.22379 -10.747,-5.87735 -2.1066,-1.11401 -2.4079,-0.8485 -4.8213,4.24858 -4.765,10.06383 -13.262,17.64952 -23.787,21.23574 l -4.6447,1.5826 v 55.48934 c 0,36.11363 0.3451,55.37293 0.9883,55.15599 0.5436,-0.18333 7.5114,-5.65278 15.4841,-12.15433 z m -80.6826,-13.59137 c 21.8036,-11.23846 14.5672,-43.08763 -9.7898,-43.08763 -12.8788,0 -21.9282,9.1746 -21.978,22.28212 -0.035,9.14684 4.2991,16.72241 11.8491,20.71189 4.9664,2.62433 14.9182,2.6711 19.9187,0.0936 z m -14.3696,-12.17976 c -5.8132,-2.9673 -6.7968,-11.89325 -1.7482,-15.86454 9.0811,-7.14315 21.5462,4.77858 14.0764,13.46274 -2.5335,2.94538 -8.8517,4.17631 -12.3282,2.4018 z m 151.7234,10.5588 c 13.0514,-9.17283 13.0854,-29.33084 0.064,-37.94795 -10.464,-6.92477 -24.9446,-3.91779 -31.9243,6.6293 -4.0654,6.14323 -4.4433,15.62938 -0.9011,22.61953 4.5125,8.90505 10.62,12.33194 21.3047,11.9541 6.1412,-0.21717 7.8083,-0.69083 11.4567,-3.25498 z m -17.3685,-11.02547 c -5.6422,-3.06196 -6.5095,-9.8606 -1.852,-14.51812 3.8313,-3.83134 8.6955,-3.95638 13.0002,-0.33419 2.4493,2.06093 3.0767,3.36983 3.0767,6.41822 0,5.22132 -0.7625,6.8187 -4.0715,8.52988 -3.5438,1.83256 -6.654,1.80322 -10.1534,-0.0958 z m -181.0239,-46.61644 c 5.5179,-2.60156 9.9357,-8.02046 11.8385,-14.52114 1.8876,-6.44867 1.1884,-10.59833 -2.9456,-17.48172 -2.3961,-3.98954 -4.4203,-5.89962 -8.5083,-8.02846 -15.8888,-8.27421 -34.0441,2.52898 -34.1138,20.29928 -0.066,16.92006 17.6771,27.30026 33.7292,19.73204 z m -16.0012,-11.90487 c -2.323,-1.35301 -4.75,-6.18003 -4.75,-9.44715 0,-4.00434 4.9958,-8.47274 9.4727,-8.47274 9.9755,0 15.1021,9.57908 8.6042,16.07692 -2.3456,2.34562 -3.7778,2.91707 -7.25,2.89267 -2.3798,-0.0167 -5.1144,-0.48909 -6.0769,-1.0497 z m 269.25,14.00655 c 10.5543,-2.40326 17.9734,-11.56489 17.9906,-22.21628 0.011,-6.69135 -2.124,-11.58892 -7.153,-16.40948 -14.3603,-13.76524 -38.7937,-3.56245 -38.7937,16.19932 0,10.48273 6.9497,19.21963 17.9496,22.56566 3.4713,1.05592 4.8416,1.03686 10.0065,-0.13922 z m -10.25,-14.00655 c -2.9105,-1.69518 -4.9973,-6.78834 -4.3013,-10.49804 1.3486,-7.18883 10.4883,-9.87004 16.4746,-4.83296 2.5885,2.17811 3.0767,3.29639 3.0767,7.04775 0,5.95528 -3.4449,9.37705 -9.396,9.33295 -2.2572,-0.0167 -4.8915,-0.48909 -5.854,-1.0497 z m -111.7764,-32.7357 c 2.6501,-1.6214 5.7071,-4.73239 7.5,-7.63221 2.7211,-4.40134 3.0264,-5.71797 3.0264,-13.05198 0,-7.33401 -0.3053,-8.65064 -3.0264,-13.05198 -9.9735,-16.13173 -34.1894,-14.99199 -42.0928,1.98112 -5.7063,12.25451 -1.233,26.97054 9.9659,32.78544 8.2396,4.27829 16.5161,3.932 24.6269,-1.03039 z m -19.2106,-13.52806 c -3.3773,-3.12991 -4.1444,-5.97033 -2.7521,-10.18922 2.3544,-7.13369 11.3803,-8.35598 16.5281,-2.23823 2.1567,2.56307 2.5526,3.8329 2.094,6.716 -1.1848,7.44942 -10.4117,10.77006 -15.87,5.71145 z"
       id="path1" />
  </g>
</svg>
